# xmcd
#
# Track frame offsets:
#	150
#	17025
#	33675
#	53774
#	67332
#	84511
#	101799
#	122068
#	139396
#	159310
#	180538
#	196738
#	213621
#	232484
#	250674
#	264999
#	282149
#
# Disc length: 4017 seconds
#
# Revision: 0
# Processed by: cddbd v1.5.2PL0 Copyright (c) Steve Scherf et al.
# Submitted via: EasyCDDAExtractor 16.0.9.1
#
DISCID=fd0faf11
DTITLE=金莎 - 他一愛我 Disc 2
DYEAR=2012
DGENRE=Pop
TTITLE0=發現愛
TTITLE1=換季
TTITLE2=空氣
TTITLE3=迷戀
TTITLE4=笨蛋
TTITLE5=我的超人
TTITLE6=天邊的眷戀
TTITLE7=Wu La La
TTITLE8=我懂了
TTITLE9=復活
TTITLE10=小師妹
TTITLE11=這種愛
TTITLE12=星月神話
TTITLE13=最近好嗎
TTITLE14=愛來的時候
TTITLE15=我還記得你的微笑
TTITLE16=被風吹過的夏天
EXTD=
EXTT0=
EXTT1=
EXTT2=
EXTT3=
EXTT4=
EXTT5=
EXTT6=
EXTT7=
EXTT8=
EXTT9=
EXTT10=
EXTT11=
EXTT12=
EXTT13=
EXTT14=
EXTT15=
EXTT16=
PLAYORDER=
